/* XPM */
static char *microphone_medium[] = {
/* columns rows colors chars-per-pixel */
"16 16 4 1 ",
"  c None",
". c gray74",
"X c gray",
"o c gray75",
/* pixels */
"                ",
"    XXX         ",
"   XXXXX        ",
"   XXXXX        ",
"   XXXXX        ",
" X XXXXX X      ",
" X XXXXX X  XX  ",
" X XXXXX X XXXX ",
" X XXXXX X XXXX ",
" X XXXXX X  XX  ",
"  X XXX XX      ",
"  XX   XX   XX  ",
"   XXXXX   XXXX ",
"    XXX    XXXX ",
" XXXXXXXXX  XX  ",
" XXXXXXXXX      "
};
