/* XPM */
static char *microphone_muted[] = {
/* columns rows colors chars-per-pixel */
"16 16 4 1 ",
"  c None",
". c gray74",
"X c gray",
"o c gray75",
/* pixels */
"                ",
"    XXX         ",
"   XXXXX        ",
"   XXXXX        ",
"   XXXXX        ",
" X XXXXX X      ",
" X XXXXX X      ",
" X XXXXX X      ",
" X XXXXX X      ",
" X XXXXX X      ",
"  X XXX XX      ",
"  XX   XX  XX XX",
"   XXXXX   XXXXX",
"    XXX     XXX ",
" XXXXXXXXX XXXXX",
" XXXXXXXXX XX XX"
};
