/* XPM */
static char *security_low[] = {
/* columns rows colors chars-per-pixel */
"16 16 4 1 ",
"  c None",
". c gray74",
"X c gray",
"o c gray75",
/* pixels */
"       XX       ",
"     XXXXXX     ",
"   XXXXXXXXXXX  ",
"XXXXXX     XXXXX",
"XXX          XXX",
"XX            XX",
" XX          XX ",
" XX          XX ",
" XX          XX ",
"  XX        XX  ",
"  XX        XX  ",
"   XX      XX   ",
"    XX    XX    ",
"    XXXXXXX     ",
"      XXXX      ",
"       XX       "
};
