/* XPM */
static char *Volume_low[] = {
/* columns rows colors chars-per-pixel */
"16 16 2 1 ",
"  c None",
". c gray",
/* pixels */
"                ",
"                ",
"     .          ",
"    ..          ",
"   ...          ",
"...... .        ",
"...... ..       ",
"...... ..       ",
"...... ..       ",
"...... ..       ",
"...... .        ",
"   ...          ",
"    ..          ",
"     .          ",
"                ",
"                "
};
